<svg width="26" height="26" viewBox="0 0 26 26" fill="none" xmlns="http://www.w3.org/2000/svg">
<path d="M16.0509 13.0006C16.0509 13.6039 15.872 14.1938 15.5367 14.6954C15.2015 15.1971 14.7251 15.5881 14.1676 15.819C13.6102 16.0499 12.9968 16.1103 12.4051 15.9926C11.8133 15.8749 11.2697 15.5844 10.8431 15.1577C10.4164 14.7311 10.1259 14.1875 10.0082 13.5957C9.89045 13.004 9.95087 12.3906 10.1818 11.8331C10.4127 11.2757 10.8037 10.7993 11.3054 10.4641C11.807 10.1288 12.3968 9.94992 13.0002 9.94992C13.809 9.95085 14.5844 10.2726 15.1563 10.8445C15.7282 11.4164 16.0499 12.1918 16.0509 13.0006ZM22.5335 8.80592V17.1952C22.5319 18.6107 21.9689 19.9676 20.9681 20.9685C19.9673 21.9693 18.6103 22.5323 17.1949 22.5339H8.80555C7.39014 22.5323 6.03316 21.9693 5.03232 20.9685C4.03147 19.9676 3.46849 18.6107 3.46689 17.1952V8.80592C3.46849 7.39051 4.03147 6.03354 5.03232 5.03269C6.03316 4.03185 7.39014 3.46887 8.80555 3.46727H17.1949C18.6103 3.46887 19.9673 4.03185 20.9681 5.03269C21.9689 6.03354 22.5319 7.39051 22.5335 8.80592ZM17.5762 13.0006C17.5762 12.0955 17.3078 11.2108 16.805 10.4583C16.3022 9.70578 15.5875 9.11926 14.7514 8.77292C13.9152 8.42657 12.9951 8.33595 12.1075 8.51252C11.2198 8.68908 10.4045 9.1249 9.76449 9.76487C9.12453 10.4048 8.68871 11.2202 8.51214 12.1079C8.33558 12.9955 8.4262 13.9156 8.77254 14.7517C9.11889 15.5879 9.70541 16.3026 10.4579 16.8054C11.2104 17.3082 12.0952 17.5766 13.0002 17.5766C14.2134 17.5752 15.3765 17.0927 16.2344 16.2348C17.0923 15.3769 17.5748 14.2138 17.5762 13.0006ZM19.1015 8.04326C19.1015 7.817 19.0344 7.59582 18.9087 7.40769C18.783 7.21956 18.6044 7.07293 18.3953 6.98634C18.1863 6.89975 17.9563 6.8771 17.7344 6.92124C17.5124 6.96538 17.3086 7.07434 17.1486 7.23433C16.9886 7.39432 16.8797 7.59816 16.8355 7.82007C16.7914 8.04199 16.814 8.27201 16.9006 8.48105C16.9872 8.69009 17.1338 8.86875 17.322 8.99446C17.5101 9.12016 17.7313 9.18726 17.9575 9.18726C18.2609 9.18726 18.5519 9.06673 18.7665 8.85219C18.981 8.63765 19.1015 8.34666 19.1015 8.04326Z" fill="#616161"/>
</svg>
